<svg width="50" height="50" viewBox="0 0 50 50" fill="none" xmlns="http://www.w3.org/2000/svg">
<rect width="50" height="50" rx="25" fill="#F5F5F5"/>
<g clip-path="url(#clip0_2075_1212)">
<path d="M20.3586 22.8748C20.3889 22.8869 20.4252 22.893 20.4555 22.9051C20.7824 23.008 21.1094 23.0807 21.4484 23.1352C21.4605 23.1352 21.4666 23.1352 21.4787 23.1412C21.5453 23.1533 21.618 23.1594 21.6846 23.1654C21.7027 23.1654 21.727 23.1715 21.7451 23.1715C21.8057 23.1775 21.8662 23.1836 21.9207 23.1896C21.9449 23.1896 21.9691 23.1957 21.9934 23.1957C22.0539 23.2018 22.1084 23.2018 22.1689 23.2078C22.1932 23.2078 22.2174 23.2078 22.2416 23.2139C22.3203 23.2139 22.4051 23.2199 22.4838 23.2199C22.5625 23.2199 22.6473 23.2199 22.726 23.2139C22.7502 23.2139 22.7744 23.2139 22.7986 23.2078C22.8592 23.2078 22.9137 23.2018 22.9742 23.1957C22.9984 23.1957 23.0227 23.1896 23.0529 23.1896C23.1135 23.1836 23.168 23.1775 23.2285 23.1715C23.2527 23.1715 23.2709 23.1654 23.2951 23.1654C23.3617 23.1594 23.4283 23.1473 23.4949 23.1412C23.507 23.1412 23.5191 23.1352 23.5312 23.1352C23.8643 23.0867 24.1973 23.008 24.5242 22.9051C24.5424 22.899 24.5605 22.893 24.5787 22.8869C26.1045 22.4025 27.4305 21.3914 28.3084 19.9807C28.9805 18.909 29.3377 17.6678 29.3438 16.4023C29.3559 14.5799 28.6475 12.8543 27.3578 11.5465C26.0621 10.2387 24.3486 9.51211 22.5262 9.5C22.5141 9.5 22.502 9.5 22.4898 9.5C20.6674 9.5 18.9479 10.2084 17.6521 11.492C16.3504 12.7877 15.6299 14.5133 15.6299 16.3539C15.6299 17.6436 15.9871 18.8969 16.6652 19.9807C17.5371 21.3793 18.8449 22.3844 20.3586 22.8748Z" fill="#BDC9CD"/>
<path d="M39.1402 32.5986L35.1684 28.6328C35.1441 28.6086 35.126 28.5904 35.1018 28.5723C35.0896 28.5662 35.0836 28.5541 35.0715 28.548C35.0594 28.5359 35.0473 28.5299 35.0291 28.5178C35.017 28.5117 35.0049 28.4996 34.9928 28.4936C34.9807 28.4875 34.9685 28.4814 34.9564 28.4693C34.9443 28.4633 34.9322 28.4572 34.9141 28.4512C34.9019 28.4451 34.8898 28.4391 34.8777 28.433C34.8656 28.427 34.8535 28.4209 34.8414 28.4209C34.8293 28.4148 34.8111 28.4088 34.799 28.4088C34.7869 28.4027 34.7748 28.4027 34.7627 28.3967C34.7506 28.3906 34.7324 28.3906 34.7203 28.3846C34.7082 28.3846 34.69 28.3785 34.6779 28.3785H34.6719C34.6598 28.3785 34.6476 28.3725 34.6355 28.3725C34.575 28.3664 34.5144 28.3664 34.4539 28.3725C34.4418 28.3725 34.4297 28.3785 34.4176 28.3785H34.4115C34.3994 28.3785 34.3812 28.3846 34.3691 28.3846C34.357 28.3846 34.3389 28.3906 34.3268 28.3967C34.3146 28.4027 34.3025 28.4027 34.2904 28.4088C34.2783 28.4148 34.2601 28.4209 34.248 28.4209C34.2359 28.427 34.2238 28.427 34.2117 28.433C34.1996 28.4391 34.1875 28.4451 34.1754 28.4512C34.1633 28.4572 34.1512 28.4633 34.133 28.4693C34.1209 28.4754 34.1088 28.4814 34.0967 28.4936C34.0846 28.4996 34.0725 28.5057 34.0603 28.5178C34.0482 28.5238 34.0361 28.5359 34.018 28.548C34.0059 28.5541 33.9998 28.5602 33.9877 28.5723C33.9635 28.5904 33.9453 28.6086 33.9211 28.6328L29.9553 32.5986C29.598 32.9559 29.598 33.5311 29.9553 33.8822C30.1309 34.0578 30.367 34.1486 30.5971 34.1486C30.8271 34.1486 31.0633 34.0578 31.2389 33.8822L33.6547 31.4664V39.5918C33.6547 40.0943 34.0603 40.5 34.5629 40.5C35.0654 40.5 35.4711 40.0943 35.4711 39.5918V31.4664L37.8869 33.8822C38.0625 34.0578 38.2986 34.1486 38.5287 34.1486C38.7588 34.1486 38.9949 34.0578 39.1705 33.8822C39.4914 33.5311 39.4914 32.9559 39.1402 32.5986Z" fill="#CAEB66"/>
<path d="M25.057 24.6428C24.2275 24.8971 23.3617 25.0303 22.4838 25.0303C21.6059 25.0303 20.74 24.8971 19.9105 24.6428C19.1295 24.4006 18.3363 24.2855 17.5553 24.2855C14.9215 24.2855 12.4391 25.6115 11.0525 27.9184C10.4228 28.9719 9.93847 30.098 9.61757 31.2787C9.53281 31.5875 9.64785 31.9205 9.90215 32.1021C13.5894 34.742 17.9367 36.1406 22.4898 36.1406C23.4949 36.1406 24.5061 36.068 25.499 35.9287C25.4203 35.4322 25.3779 34.9297 25.3779 34.4271C25.3779 32.1264 26.2377 29.9225 27.7937 28.2271C28.9078 27.0162 30.3064 26.1443 31.8443 25.6721C29.925 24.3219 27.4123 23.9102 25.057 24.6428Z" fill="#BDC9CD"/>
</g>
<defs>
<clipPath id="clip0_2075_1212">
<rect width="31" height="31" fill="white" transform="translate(9 9.5)"/>
</clipPath>
</defs>
</svg>
