<svg width="196" height="202" viewBox="0 0 196 202" fill="none" xmlns="http://www.w3.org/2000/svg">
<path d="M0 200.999H73.3255C73.4527 200.999 73.559 200.902 73.5711 200.775L75.3535 181.65C75.371 181.462 75.1799 181.325 75.0076 181.401C72.0451 182.721 52.951 191.182 51.5138 190.724C49.9548 190.228 19.2266 156.736 19.014 156.146C18.8229 155.615 18.8229 150.16 18.8242 149.063C18.8242 148.95 18.7489 148.852 18.6392 148.825C17.2303 148.466 8.26323 146.131 8.2195 144.738C8.1724 143.226 9.61296 142.919 8.2666 142.116C6.92023 141.313 5.952 139.07 7.1093 138.574C8.2666 138.078 5.66873 134.937 7.08575 134.252C8.50276 133.567 3.92068 131.441 7.17995 128.678C10.4392 125.914 23.8787 129.622 24.9653 131.701C26.052 133.779 24.4223 134.771 22.2961 135.055C20.1706 135.338 10.0611 132.882 11.431 133.543C12.8009 134.204 25.9571 138.007 27.6809 140.747C29.4054 143.487 27.4447 144.833 25.6731 144.243C23.9015 143.652 22.2248 141.975 18.3041 141.054C14.3834 140.133 11.1006 140.227 12.1395 139.59C13.1791 138.952 18.9184 139.637 23.2166 142.211C27.5154 144.786 27.6809 148.116 25.7909 148.258C23.9015 148.4 11.2413 143.817 12.4934 143.699C13.7449 143.581 21.9644 145.66 23.8544 147.336C25.7438 149.013 18.9891 148.541 18.8236 148.47C18.6708 148.405 16.3993 114.903 16.0561 109.831C16.0407 109.606 16.3112 109.48 16.4733 109.637C20.4673 113.505 49.0929 141.219 49.2685 141.219C49.4576 141.219 49.1266 189.449 50.9217 189.827C52.6509 190.191 50.084 144.696 49.8936 141.364C49.8869 141.251 49.9589 141.148 50.0665 141.115L116.47 120.479C116.631 120.429 116.794 120.551 116.79 120.719C116.691 124.966 115.698 167.288 115.496 167.625C115.3 167.952 81.6883 179.237 76.6002 180.943C76.3809 181.016 76.1898 180.776 76.3123 180.579C78.2857 177.415 88.0999 162.469 95.5853 165.641C103.947 169.183 89.7753 139.352 101.254 144.596C112.248 149.618 116.492 122.191 116.83 119.866C116.845 119.771 116.801 119.676 116.721 119.624L76.4246 93.3297C76.3681 93.2927 76.2995 93.2806 76.2335 93.2961C73.4708 93.9501 15.6322 107.651 17.4772 108.388C19.3053 109.119 72.0639 96.41 75.4995 95.5817C75.6038 95.5568 75.6791 95.4673 75.6865 95.3604C75.8399 93.1709 77.5779 71.5416 86.6337 66.2517C95.5806 61.0257 111.42 60.4504 113.363 60.3986C113.476 60.3959 113.577 60.4699 113.607 60.5802C113.895 61.6501 115.575 67.0254 120.592 68.5965C120.868 68.6827 120.791 69.0897 120.502 69.0776C113.745 68.7863 113.054 62.5665 113.701 56.1899C114.41 49.1984 110.819 46.3172 111.859 41.357C112.898 36.3968 110.3 30.9171 111.67 30.6809C113.04 30.4448 119.511 35.8773 128.864 34.1764C138.218 32.4761 144.359 28.6025 144.075 28.3664C143.792 28.1302 122.015 16.1313 114.22 16.8405C106.426 17.549 95.703 25.2491 99.0572 26.0989C102.411 26.9493 108.363 27.6107 114.551 30.3028C120.74 32.9955 128.251 32.7123 134.533 30.2557C140.815 27.7991 144.878 28.2715 151.586 29.7363C158.294 31.2004 159.948 15.0453 152.531 7.81761C145.116 0.591235 131.558 -0.023074 122.867 2.00825C114.175 4.03958 114.364 14.9518 115.592 14.7156C116.82 14.4795 128.299 17.4555 135.715 21.0458C143.131 24.6361 145.258 25.3917 145.258 31.0133C145.258 36.635 144.927 38.9496 142.896 41.8307C140.865 44.7125 132.456 57.325 132.74 57.7973C133.024 58.2697 139.211 61.6238 140.817 61.1515C142.424 60.6791 143.415 58.6949 143.179 54.5381C142.943 50.3812 144.502 45.1377 146.627 45.752C148.753 46.3663 147.667 54.5858 149.367 54.1135C151.068 53.6412 156.217 44.1937 156.217 44.0047C156.217 43.8156 150.312 37.1551 150.123 36.2575C149.946 35.4178 151.093 33.8332 152.518 33.8265C152.67 33.8258 152.783 33.6872 152.757 33.5379C152.448 31.7959 152.542 30.4468 152.721 30.4468C152.91 30.4468 153.052 33.659 153.761 33.7061C153.761 33.7061 155.06 33.8003 154.753 35.7374C154.445 37.6745 153.548 39.1386 153.525 39.0438C153.501 38.9496 151.234 35.3592 149.368 35.1702C147.502 34.9811 145.652 39.5793 142.691 44.1137C139.973 48.2772 134.932 56.6226 134.125 57.9608C134.063 58.0651 133.934 58.1075 133.822 58.0611C133.127 57.7758 130.735 56.8944 129.559 57.7502C128.173 58.7582 126.221 61.2141 127.291 61.5296C128.362 61.8445 132.109 62.6317 131.795 62.0336C131.48 61.4354 128.015 60.3643 126.283 61.9703C124.551 63.5764 123.165 68.0165 124.394 66.946C125.622 65.8755 130.063 66.3795 129.401 65.5606C128.74 64.7418 124.52 65.2141 123.89 67.6707C123.26 70.1273 123.386 75.8269 124.835 77.3072C126.283 78.7875 128.551 76.52 127.795 75.0397C127.04 73.5595 126.976 71.2294 128.519 71.1661C130.062 71.1029 130.976 74.9765 130.314 75.7953C129.653 76.6142 127.732 76.1102 128.551 75.7953C129.37 75.4804 130.755 75.1339 130.818 77.433C130.881 79.7321 130.519 81.8422 133.731 86.5656C136.943 91.2896 144.052 98.8242 149.154 109.665C154.256 120.506 160.349 129.859 166.585 136.095C172.82 142.33 177.851 149.275 183.945 144.385C190.039 139.496 190.18 133.828 190.605 129.293C191.031 124.758 191.739 120.223 187.842 116.821C183.945 113.42 177.072 114.909 178.135 116.184C179.198 117.459 183.804 124.191 184.654 123.269C185.505 122.348 178.277 114.554 173.459 111.436C168.64 108.318 150.004 90.746 146.745 83.235C143.486 75.724 145.651 67.7642 146.375 64.363C147.099 60.9617 148.454 59.135 149.336 57.8128C150.218 56.49 148.674 54.349 149.871 54.8213C151.068 55.2937 152.17 62.6627 153.241 65.3083C154.311 67.954 147.51 81.968 146.722 80.582C145.934 79.1966 146.344 66.8512 147.477 65.8439C148.611 64.836 150.028 63.1983 149.934 60.9315C149.84 58.664 152.705 64.2695 157.051 67.7656C161.397 71.261 176.93 78.2761 178.419 80.189C179.907 82.1019 171.829 96.9113 170.554 95.6362C169.278 94.3605 177.214 79.4805 179.34 80.473C181.465 81.4647 186.496 92.5896 188.268 100.454C190.04 108.319 189.544 116.468 188.693 114.768C187.843 113.068 183.546 110.438 180.261 112.288C176.976 114.137 168.357 104.848 168.782 104.777C169.208 104.706 179.127 99.9586 177.285 98.0457C175.443 96.1328 168.074 104.494 164.177 111.65C160.28 118.806 155.697 149.961 152.863 157.707C150.029 165.454 129.811 182.082 129.434 176.035C129.055 169.989 152.863 153.172 153.997 159.218C155.075 164.966 154.103 197.541 154.005 200.746C154.001 200.886 154.113 201 154.251 201H195.189" stroke="#03373D" stroke-width="1.5" stroke-miterlimit="10"/>
</svg>
